<!DOCTYPE svg PUBLIC "-//W3C//DTD SVG 1.1//EN" "http://www.w3.org/Graphics/SVG/1.1/DTD/svg11.dtd">
<!-- Uploaded to: SVG Repo, www.svgrepo.com, Transformed by: SVG Repo Mixer Tools -->
<svg width="800px" height="800px" viewBox="0 0 20 20" xmlns="http://www.w3.org/2000/svg" fill="#000000">
<g id="SVGRepo_bgCarrier" stroke-width="0"/>
<g id="SVGRepo_iconCarrier"> <g id="add-user-square-left" transform="translate(-2 -2)"> <path id="secondary" fill="#ffffff" d="M12,15h0a5,5,0,0,1,5,5v1H7V20a5,5,0,0,1,5-5Z"/> <path id="primary" d="M8.54,13A4,4,0,1,0,12,7a3.66,3.66,0,0,0-1,.13" fill="none" stroke="#000000" stroke-linecap="round" stroke-linejoin="round" stroke-width="2"/> <path id="primary-2" data-name="primary" d="M12,15h0a5,5,0,0,0-5,5v1H17V20A5,5,0,0,0,12,15ZM3,9H7M5,11V7" fill="none" stroke="#000000" stroke-linecap="round" stroke-linejoin="round" stroke-width="2"/> <path id="primary-3" data-name="primary" d="M5,3H20a1,1,0,0,1,1,1V20a1,1,0,0,1-1,1H4a1,1,0,0,1-1-1V15" fill="none" stroke="#000000" stroke-linecap="round" stroke-linejoin="round" stroke-width="2"/> </g> </g>
</svg>